<svg id="Capa_1" enable-background="new 0 0 510.03 510.03" height="512" viewBox="0 0 510.03 510.03" width="512" xmlns="http://www.w3.org/2000/svg"><g><path d="m171.825 490.01c-36.522 37.435-102.786 19.782-120.003-31.869-52.269-17.579-68.837-83.952-31.876-120.01 15.5-15.118 37.095-21.666 59.256-17.96 3.719.622 7.156-.311 9.412-2.567l79.472-80.108c3.635-3.663 8.902-5.197 13.937-4.066l29.097 6.555c5.013 1.124 9.107 4.752 10.833 9.588 11.227 31.481 9.641 28.167 11.186 28.723l27.245 9.709c4.837 1.725 8.464 5.819 9.595 10.84l6.548 29.09c1.131 5.035-.403 10.303-4.066 13.937l-80.143 79.521c-2.213 2.213-3.154 5.643-2.531 9.362 3.704 22.16-2.837 43.762-17.962 59.255z" fill="#e6ffff"/><path d="m171.825 490.01c-36.13 37.033-101.682 20.257-119.621-30.78l180.934-180.935 27.245 9.709c4.837 1.725 8.464 5.819 9.595 10.84l6.548 29.09c1.131 5.035-.403 10.303-4.066 13.937l-80.143 79.521c-2.213 2.213-3.154 5.643-2.531 9.362 3.705 22.161-2.836 43.763-17.961 59.256z" fill="#d9f2ff"/><path d="m489.415 166.268c-15.436 15.068-36.656 21.963-58.237 18.908-3.627-.516-7.078.559-9.454 2.935l-72.726 73.32c-9.319 9.411-25.638 2.88-25.654-10.564l.007-20.937-26.722-3.811c-6.42-.908-11.759-5.973-12.728-12.728l-3.818-26.715h-20.93c-13.355-.016-20.06-16.22-10.564-25.654l73.362-72.768c2.333-2.333 3.408-5.784 2.892-9.412-5.881-41.545 25.432-78.565 68.002-78.821 33.916 0 60.025 22.772 68.752 49.816 50.64 16.341 64.353 80.721 27.818 116.431z" fill="#e6ffff"/><path d="m288.88 222.554 172.717-172.718c30.046 9.696 48.58 37.144 48.401 67.338-.256 42.471-37.19 73.895-78.821 68.002-3.627-.516-7.078.559-9.454 2.935l-72.726 73.32c-9.378 9.47-25.638 2.833-25.654-10.564l.007-20.937c-28.408-4.053-30.059-3.492-34.47-7.376z" fill="#d9f2ff"/><g fill="#ff6426"><path d="m151.136 166.82-33.941-33.941c-5.858-5.858-5.858-15.355 0-21.213s15.355-5.858 21.213 0l33.941 33.941c5.858 5.858 5.858 15.355 0 21.213s-15.356 5.858-21.213 0z"/><path d="m196.391 121.566c-2.715-2.715-4.393-6.464-4.393-10.607v-48c0-8.284 6.716-15 15-15 8.285 0 15 6.716 15 15v48c-.001 13.403-16.244 19.97-25.607 10.607z"/><path d="m57.881 212.075c-9.365-9.365-2.794-25.606 10.607-25.606h48c8.284-.001 15 6.715 15 15 0 8.284-6.715 15-15 15h-48c-4.142 0-7.892-1.679-10.607-4.394z"/></g><path d="m379.871 392.477-33.941-33.941c-5.858-5.858-5.858-15.355 0-21.213s15.355-5.858 21.213 0l33.941 33.941c5.858 5.858 5.858 15.355 0 21.213s-15.355 5.858-21.213 0z" fill="#cf3b00"/><path d="m300.675 451.791c-2.715-2.714-4.394-6.464-4.393-10.607v-48c0-8.284 6.715-15 15-15 8.284-.001 15 6.715 15 15v48c-.001 13.403-16.243 19.97-25.607 10.607z" fill="#cf3b00"/><path d="m391.185 313.281c-9.365-9.365-2.794-25.606 10.607-25.606h48c8.284-.001 15 6.715 15 15 0 8.284-6.715 15-15 15h-48c-4.143 0-7.893-1.679-10.607-4.394z" fill="#cf3b00"/></g></svg>