<svg height="512" viewBox="0 0 512 512" width="512" xmlns="http://www.w3.org/2000/svg"><g id="Corona_Virus_Symptoms_Shortness_of_breath" data-name="Corona Virus Symptoms Shortness of breath"><g id="Filled"><path d="m504 504c0-83-36.119-137.039-99.783-185.484 0 0-55.374 55.2-115.161 74.216-6.144 27.2-12.965 67.294-12.965 111.268v8h227.909z" fill="#96e0d7"/><path d="m296 512v-8c16-16 16-22.036 16-48v-22c0-24-32-24-32 0v28.463l-16-38.463 10.179-40.717a18.738 18.738 0 0 0 -18.179-23.283l-24 64 16 80v8z" fill="#ffdfc5"/><path d="m453.4 363.772a196.232 196.232 0 0 1 -115.743 148.228h166.343v-8c0-58.354-17.876-102.384-50.6-140.228z" fill="#97d0dd"/><path d="m392.893 278.661c-68.023-5.623-85.614-67.161-97.124-107.661-3.8-13.36-15.816-18.261-28.677-13.118l-71.665 20.362c-14.807 3.94-27.685 3.609-38.864.443l.216.732 15.305 53.868-15.873 39.266 29.383 8.284 9.839 34.63a28 28 0 0 0 34.586 19.281l57.716-16.4 10.932 38.477s-4.578 13.628-9.611 35.91c59.787-19.012 115.161-74.216 115.161-74.216z" fill="#ffdfc5"/><path d="m156.563 178.682c11.179 3.166 24.057 3.5 38.864-.443l71.665-20.362c12.861-5.143 24.882-.242 28.677 13.118 11.51 40.508 29.1 102.043 97.124 107.666 61.777-150.961 10.862-267.894-48.206-253.414-49.134-59.912-161.219 54.153-220.893 71.109-22.377 6.358-33.724-6.1-33.724-6.1s15.43 73.961 66.493 88.426z" fill="#68676b"/><path d="m393.278 45.663a216.383 216.383 0 0 1 -96.085 130.324c11.585 40.382 30.415 97.277 95.7 102.674 43.032-105.152 31.378-193.778.385-232.998z" fill="#58575b"/><path d="m447.734 431.6a48 48 0 0 0 -48.2-47.8 48 48 0 0 0 -47.8 48.2l.266 80 96-.4z" fill="#afefde"/><path d="m341.383 185.18c-10.932-38.477-49.409-27.545-40.664 3.237l-28.719 11.583 24 40 25.533-7.6c21.251-6.035 25.888-25.97 19.85-47.22z" fill="#ffdfc5"/><circle cx="312" cy="48" fill="#8a8a8c" r="24"/><circle cx="276" cy="92" fill="#8a8a8c" r="12"/><circle cx="392" cy="424" fill="#d5f7ed" r="16"/><circle cx="416" cy="448" fill="#d5f7ed" r="8"/><path d="m246.848 498.24 1.152 5.76v8h48v-8c13.019-13.019 15.444-19.442 15.9-35.371.424-22.229 0-26.078-.7-29.861a108.313 108.313 0 0 1 -64.352 59.472z" fill="#ffd5c7"/></g><g id="Outline"><path d="m411.187 313.777-9.852-34.677c19.984-49.732 29.457-99.732 27.4-144.768-1.869-40.816-13.064-75.09-31.524-96.507-14.18-16.452-31.611-23.892-49.556-21.3-18.692-19.525-45.686-21.725-82.332-6.74-9.789 4-3.749 18.82 6.054 14.81 31.894-13.039 53.224-11.219 67.128 5.729a8 8 0 0 0 8.09 2.7c50.13-12.289 96.788 95.292 41.13 237.026-43.611-6.051-46.709-34-57.955-22.819a8 8 0 0 0 -.033 11.313c15.242 15.332 34.378 24.554 56.933 27.488l8.534 30.037c-11.473 10.733-50.728 45.641-94.281 63.785-9.679 4.033-3.7 18.875 6.154 14.77 44.813-18.669 84.01-52.85 97.684-65.563 124.855 98.258 73.35 182.939 99.239 182.939a8 8 0 0 0 8-8c0-83.829-35.724-140.066-100.813-190.223z"/><path d="m309.856 153.507c-25.119 7.137-22.385 46.99-6.95 42.6a8 8 0 0 0 5.509-9.882c-5.943-20.917 17.395-26.592 25.273 1.137 4.774 16.806 2.407 32.582-14.341 37.341-10.183 2.893-5.81 18.281 4.373 15.39 50.855-14.443 24.903-97.604-13.864-86.586z"/><path d="m282.226 328.227 8.746 30.781c2.9 10.2 18.275 5.777 15.391-4.373l-10.933-38.477a8 8 0 0 0 -9.882-5.509c-54.712 13.812-60.7 21.441-72.92 14.629a19.869 19.869 0 0 1 -9.5-12c-10.149-31.5-7.95-38.052-15.363-40.142l-20.792-5.863c11.984-31.071 14.116-31.565 12.806-36.175l-12-42.248c24.318 2.118 38.432-6.609 101.5-23.272 10.191-2.895 5.8-18.282-4.373-15.39l-71.596 20.338c-45.966 12.189-74.889-20.76-90.5-65.227 28.051 5.752 61.8-19.136 113.393-51.024 9.006-5.566.588-19.173-8.414-13.609-50.067 30.946-93.158 62.521-111.849 44.15-5.206-6.03-15.44-1.252-13.706 7.066 7.494 35.95 31.036 80.114 67.818 93.142l13.582 47.8c-20.381 53.789-25.2 41.614 15.482 54.491 8.021 21.883 6.17 41.037 25.717 51.934 20.649 11.515 36.167-1.635 77.393-11.022z"/><path d="m399.5 375.8a55.97 55.97 0 0 0 -55.766 56.229l.266 72a8 8 0 0 0 8 7.97c.1-.045 8.029-.354 8-8.03 2.5-61.019-7.54-81.307 11.332-100.335 24.975-25.185 68.253-7.515 68.4 28l.266 72a8 8 0 0 0 8 7.971c.1-.045 8.028-.354 8-8.03l-.266-72a56.069 56.069 0 0 0 -56.232-55.775z"/><path d="m273.191 425.267-.788-1.895 9.537-38.148c6.808-27.235-28.267-41.8-33.431-28.033-25.056 68.027-25.154 64.374-24.354 68.378l16 80c2.076 10.377 17.766 7.245 15.69-3.138l-15.553-77.761 20.778-55.406a10.739 10.739 0 0 1 5.348 12.079c-9.9 41.769-11.589 41.441-9.8 45.73l16 38.463c3.341 8.031 15.386 5.647 15.386-3.073v-28.463c0-7.373 4.132-10 8-10 12.453 0 6.427 19.818 8 32 0 25.42 0 28.687-13.657 42.343-7.479 7.478 3.824 18.8 11.314 11.314 21.012-21.016 18.339-28.922 18.339-75.657 0-31.156-39.255-34.539-46.809-8.733z"/><path d="m208 264c10.577 0 10.592-16 0-16-10.577 0-10.592 16 0 16z"/><path d="m0 328c0 10.577 16 10.592 16 0 0-4.418-16-10.592-16 0z"/><path d="m48 328c0-10.577-16-10.592-16 0s16 10.592 16 0z"/><path d="m72 336c10.577 0 10.592-16 0-16-4.418 0-10.592 16 0 16z"/><path d="m160 360c0 10.577 16 10.592 16 0s-16-10.592-16 0z"/><path d="m232 256c0 10.577 16 10.592 16 0s-16-10.592-16 0z"/><path d="m344 328c0-10.577-16-10.592-16 0s16 10.592 16 0z"/><path d="m312 304c0 10.577 16 10.592 16 0s-16-10.592-16 0z"/><path d="m296 288c10.577 0 10.592-16 0-16s-10.592 16 0 16z"/><path d="m272 272c10.577 0 10.592-16 0-16s-10.592 16 0 16z"/><path d="m240 40c10.577 0 10.592-16 0-16-10.577 0-10.592 16 0 16z"/><path d="m64 304h72c10.576 0 10.592-16 0-16h-72a16 16 0 1 1 16-16 8 8 0 0 0 8 8c16.807 0 6.5-40-24-40a32 32 0 0 0 0 64z"/><path d="m136 352h-72a32 32 0 0 0 0 64c30.515 0 40.8-40 24-40a8 8 0 0 0 -8 8 16 16 0 1 1 -16-16h72c10.576 0 10.592-16 0-16z"/><path d="m168 320h-64c-10.576 0-10.592 16 0 16h64c10.576 0 10.592-16 0-16z"/></g></g></svg>