<svg id="_x31_-outline-expand" enable-background="new 0 0 64 64" height="512" viewBox="0 0 64 64" width="512" xmlns="http://www.w3.org/2000/svg"><circle cx="32" cy="16" fill="#62c4c3" r="6"/><path d="m48 31h-9v-5c0-2.209-1.791-4-4-4h-6c-2.209 0-4 1.791-4 4v14c0 2.209 1.791 4 4 4h11v18h6v-21c0-2.209-1.791-4-4-4h6z" fill="#62c4c3"/><path d="m5 44v2c0 1.104.896 2 2 2h8c1.104 0 2 .896 2 2v12h14l-3-8h2c5.523 0 10-4.477 10-10z" fill="#f2daae"/><path d="m5 24h12v20h-12z" fill="#f2daae"/><path d="m5 42h12v2h-12z" fill="#e0c494"/><path d="m3 20h14v4h-14z" fill="#efbc2e"/><path d="m19 18c-1.104 0-2 .896-2 2v24h4v-24c0-1.104-.896-2-2-2z" fill="#ef941d"/><g fill="#3a4249"><path d="m35.593 20.499c-.531-.925-1.525-1.499-2.593-1.499v-2c1.782 0 3.44.958 4.327 2.501z"/><path d="m47 24h-4v-2h2v-3h3v-3h3v-2h2v4h-3v3h-3z"/><path d="m56 27h-4v-2h2v-3h3v-3h3v-2h2v4h-3v3h-3z"/><path d="m46 12h-4v-2h2v-3h3v-3h3v-2h2v4h-3v3h-3z"/><path d="m17 56c-4.411 0-8-3.589-8-8h2c0 3.309 2.691 6 6 6z"/></g><path d="m42 37h-9v-10h-2v12h14.445c-.693-1.19-1.968-2-3.445-2z" fill="#42a5b2"/></svg>